# File created by Blade
# Date/Time:  Tue Apr 07 20:35:22 2015
#---------------------------------------------------------
:version 1.10
:name HOM
:units
  mass 1.0
  length 1.000000
  angle deg
:documentation
     Acclaim Skeleton File
:root
   axis xyz
   order TX TY TZ RX RY RZ
   position 0.000000 0.000000 0.000000
   orientation 0 0 0
:bonedata
   begin
      id 1
      name Spine_dum
      direction 0.000000 1.000000 0.000000
      length 4.885285
      axis 0.0 0.0 0.0 xyz
   end
   begin
      id 2
      name LeftUpLeg_dum
      direction 1.000000 0.000000 0.000000
      length 2.672193
      axis 0.0 0.0 0.0 xyz
   end
   begin
      id 3
      name RightUpLeg_dum
      direction -1.000000 0.000000 0.000000
      length 2.672193
      axis 0.0 0.0 0.0 xyz
   end
   begin
      id 4
      name Spine
      direction 0.000000 1.000000 0.000000
      length 0.000000
      axis 0.0 0.0 0.0 xyz
      dof rx ry rz
   end
   begin
      id 5
      name Spine_dum1
      direction 0.000000 1.000000 0.000000
      length 16.494159
      axis 0.0 0.0 0.0 xyz
   end
   begin
      id 6
      name Spine_dum2
      direction 0.000000 1.000000 0.000000
      length 10.663448
      axis 0.0 0.0 0.0 xyz
   end
   begin
      id 7
      name Spine_dum3
      direction 0.000000 1.000000 0.000000
      length 10.663448
      axis 0.0 0.0 0.0 xyz
   end
   begin
      id 8
      name Head
      direction 0.000000 1.000000 0.000000
      length 4.527550
      axis 0.0 0.0 0.0 xyz
      dof rx ry rz
   end
   begin
      id 9
      name LeftShoulder
      direction 1.000000 0.000000 0.000000
      length 7.531907
      axis 0.0 0.0 -90.0 xyz
      dof rx ry rz
   end
   begin
      id 10
      name LeftArm
      direction 1.000000 0.000000 0.000000
      length 10.229199
      axis 0.0 0.0 -90.0 xyz
      dof rx ry rz
   end
   begin
      id 11
      name LeftForeArm
      direction 1.000000 0.000000 0.000000
      length 8.673495
      axis 0.0 0.0 -90.0 xyz
      dof ry rz rx
   end
   begin
      id 12
      name LeftHand
      direction 0.000000 0.000000 0.000000
      length 0.000000
      axis 0.0 0.0 -90.0 xyz
      dof rx ry rz
   end
   begin
      id 13
      name LeftHand_dum1
      direction 0.000000 0.000000 0.000000
      length 0.000000
      axis 0.0 0.0 -90.0 xyz
   end
   begin
      id 14
      name LeftHand_dum2
      direction 1.000000 0.000000 0.000000
      length 3.937000
      axis 0.0 0.0 -90.0 xyz
   end
   begin
      id 15
      name LeftHandThumb1
      direction 0.000000 0.000000 1.000000
      length 3.937000
      axis 0.0 0.0 -90.0 xyz
      dof rx rz ry
   end
   begin
      id 16
      name RightShoulder
      direction -1.000000 0.000000 0.000000
      length 7.531907
      axis 0.0 0.0 90.0 xyz
      dof rx ry rz
   end
   begin
      id 17
      name RightArm
      direction -1.000000 0.000000 0.000000
      length 10.229199
      axis 0.0 0.0 90.0 xyz
      dof rx ry rz
   end
   begin
      id 18
      name RightForeArm
      direction -1.000000 0.000000 0.000000
      length 8.673495
      axis 0.0 0.0 90.0 xyz
      dof ry rz rx
   end
   begin
      id 19
      name RightHand
      direction 0.000000 0.000000 0.000000
      length 0.000000
      axis 0.0 0.0 90.0 xyz
      dof rx ry rz
   end
   begin
      id 20
      name RightHand_dum1
      direction 0.000000 0.000000 0.000000
      length 0.000000
      axis 0.0 0.0 90.0 xyz
   end
   begin
      id 21
      name RightHand_dum2
      direction -1.000000 0.000000 0.000000
      length 3.937000
      axis 0.0 0.0 90.0 xyz
   end
   begin
      id 22
      name RightHandThumb1
      direction 0.000000 0.000000 1.000000
      length 3.937000
      axis 0.0 0.0 90.0 xyz
      dof rx rz ry
   end
   begin
      id 23
      name LeftUpLeg
      direction 0.000000 -1.000000 0.000000
      length 16.263388
      axis 0.0 0.0 0.0 xyz
      dof rx ry rz
   end
   begin
      id 24
      name LeftLeg
      direction 0.000000 -1.000000 0.000000
      length 14.328163
      axis 0.0 0.0 0.0 xyz
      dof rx ry rz
   end
   begin
      id 25
      name LeftFoot
      direction 0.000000 -0.258819 0.965926
      length 5.031290
      axis 15.0 0.0 0.0 xyz
      dof rx ry rz
   end
   begin
      id 26
      name LeftToeBase
      direction 0.000000 0.000000 1.000000
      length 2.952750
      axis 0.0 0.0 0.0 xyz
      dof rx ry rz
   end
   begin
      id 27
      name RightUpLeg
      direction 0.000000 -1.000000 0.000000
      length 16.263388
      axis 0.0 0.0 0.0 xyz
      dof rx ry rz
   end
   begin
      id 28
      name RightLeg
      direction 0.000000 -1.000000 0.000000
      length 14.328163
      axis 0.0 0.0 0.0 xyz
      dof rx ry rz
   end
   begin
      id 29
      name RightFoot
      direction 0.000000 -0.258819 0.965926
      length 5.031290
      axis 15.0 0.0 0.0 xyz
      dof rx ry rz
   end
   begin
      id 30
      name RightToeBase
      direction 0.000000 0.000000 1.000000
      length 2.952750
      axis 0.0 0.0 0.0 xyz
      dof rx ry rz
   end
:hierarchy
   begin
      root Spine_dum LeftUpLeg_dum RightUpLeg_dum
      Spine_dum Spine
      LeftUpLeg_dum LeftUpLeg
      RightUpLeg_dum RightUpLeg
      Spine Spine_dum1 Spine_dum2 Spine_dum3
      Spine_dum1 Head
      Spine_dum2 LeftShoulder
      Spine_dum3 RightShoulder
      LeftShoulder LeftArm
      LeftArm LeftForeArm
      LeftForeArm LeftHand
      LeftHand LeftHand_dum1 LeftHand_dum2
      LeftHand_dum1 LeftHandThumb1
      RightShoulder RightArm
      RightArm RightForeArm
      RightForeArm RightHand
      RightHand RightHand_dum1 RightHand_dum2
      RightHand_dum1 RightHandThumb1
      LeftUpLeg LeftLeg
      LeftLeg LeftFoot
      LeftFoot LeftToeBase
      RightUpLeg RightLeg
      RightLeg RightFoot
      RightFoot RightToeBase
   end

# File created by Blade
# Date/Time:  Tue Apr 07 20:35:32 2015
# Frame Rate: 120.000 fps
#------------------------------------------------------
:FULLY-SPECIFIED
:DEGREES
386
root 1.374558 33.944178 -2.380385 26.361583 -44.399157 -48.986087
Spine 13.414762 22.024245 30.308580
Head 7.874026 10.129124 2.967408
LeftShoulder -27.557918 45.050577 6.692000
LeftArm 45.209405 -44.256641 -82.314287
LeftForeArm 5.131200 -0.000000 18.516634
LeftHand 8.762263 -0.000000 0.278955
LeftHandThumb1 -26.253704 0.000000 33.147579
RightShoulder 8.194892 10.991318 -19.387109
RightArm 29.585459 -11.808382 74.591267
RightForeArm -1.183983 -0.000000 13.527015
RightHand 6.930331 -0.000000 3.901058
RightHandThumb1 -24.326973 -0.000000 -32.862282
LeftUpLeg 5.603963 7.269065 27.958949
LeftLeg 14.204216 -0.000000 -0.000000
LeftFoot -19.854892 29.113807 -15.989216
LeftToeBase -3.403889 -0.000000 0.000000
RightUpLeg -73.068811 -54.034393 -13.024815
RightLeg -3.999698 -0.000000 0.000000
RightFoot 38.101874 -15.615975 -14.580856
RightToeBase 19.660615 -0.000000 -0.000000
387
root 1.361087 33.956322 -2.393685 26.474840 -44.340406 -49.228327
Spine 13.545687 22.008440 30.603040
Head 7.799817 10.142978 2.860474
LeftShoulder -27.567364 45.021266 6.697012
LeftArm 45.119411 -44.436749 -82.349091
LeftForeArm 5.017325 0.000000 18.500077
LeftHand 8.842331 -0.000000 0.167537
LeftHandThumb1 -26.253704 0.000000 33.147579
RightShoulder 8.232041 10.778017 -19.381996
RightArm 29.887253 -11.774045 74.488582
RightForeArm -1.286432 -0.000000 13.555888
RightHand 6.837542 0.000000 3.973722
RightHandThumb1 -24.326973 -0.000000 -32.862282
LeftUpLeg 5.694979 7.217360 28.163680
LeftLeg 14.130501 -0.000000 -0.000000
LeftFoot -19.764239 29.251023 -15.857569
LeftToeBase -3.389741 -0.000000 0.000000
RightUpLeg -73.664667 -54.242259 -12.687326
RightLeg -4.214334 -0.000000 0.000000
RightFoot 37.996582 -15.789671 -14.549097
RightToeBase 19.415508 -0.000000 -0.000000
388
root 1.348394 33.968802 -2.403037 26.582902 -44.265584 -49.468961
Spine 13.661964 21.955330 30.899591
Head 7.733437 10.183664 2.765504
LeftShoulder -27.674902 45.033102 6.619106
LeftArm 45.076667 -44.535873 -82.355734
LeftForeArm 4.805729 -0.000000 18.475265
LeftHand 8.708361 -0.000000 0.338299
LeftHandThumb1 -26.253704 0.000000 33.147579
RightShoulder 8.268307 11.047768 -19.330921
RightArm 29.731565 -11.880580 74.531698
RightForeArm -1.428182 -0.000000 13.535313
RightHand 6.829366 -0.000000 3.908480
RightHandThumb1 -24.326973 -0.000000 -32.862282
LeftUpLeg 5.801089 7.173288 28.371226
LeftLeg 14.021197 -0.000000 -0.000000
LeftFoot -19.635125 29.439808 -15.665790
LeftToeBase -3.420855 -0.000000 0.000000
RightUpLeg -74.101994 -54.437760 -12.510819
RightLeg -4.282547 -0.000000 0.000000
RightFoot 37.871464 -15.864998 -14.666949
RightToeBase 19.203215 -0.000000 -0.000000
389
root 1.335297 33.981050 -2.408194 26.675968 -44.186243 -49.662375
Spine 13.726981 21.915203 31.144961
Head 7.679122 10.241548 2.729301
LeftShoulder -27.754130 45.028101 6.558628
LeftArm 45.021363 -44.668163 -82.343960
LeftForeArm 4.670270 -0.000000 18.421326
LeftHand 8.851242 -0.000000 0.309146
LeftHandThumb1 -26.253704 0.000000 33.147579
RightShoulder 8.301120 11.284061 -19.272851
RightArm 29.546866 -11.973891 74.600611
RightForeArm -1.602337 -0.000000 13.567742
RightHand 6.840647 -0.000000 3.781786
RightHandThumb1 -24.326973 -0.000000 -32.862282
LeftUpLeg 5.900771 7.130076 28.544884
LeftLeg 13.894106 -0.000000 -0.000000
LeftFoot -19.534377 29.561306 -15.521248
LeftToeBase -3.412114 -0.000000 0.000000
RightUpLeg -74.455444 -54.624057 -12.451879
RightLeg -4.216266 -0.000000 0.000000
RightFoot 37.710943 -15.856569 -14.872461
RightToeBase 19.147176 -0.000000 -0.000000
390
root 1.323557 33.992387 -2.410610 26.782309 -44.121943 -49.851001
Spine 13.761658 21.912645 31.378258
Head 7.655362 10.239364 2.712339
LeftShoulder -27.807295 45.054258 6.516878
LeftArm 44.960069 -44.749451 -82.296917
LeftForeArm 4.414219 -0.000000 18.350858
LeftHand 8.764141 -0.000000 0.419648
LeftHandThumb1 -26.253704 0.000000 33.147579
RightShoulder 8.315556 11.462132 -19.208602
RightArm 29.398228 -12.045447 74.655279
RightForeArm -1.944884 -0.000000 13.596111
RightHand 6.969323 0.000000 3.712693
RightHandThumb1 -24.326973 -0.000000 -32.862282
LeftUpLeg 6.001580 7.094995 28.704186
LeftLeg 13.749516 -0.000000 -0.000000
LeftFoot -19.417407 29.674272 -15.359677
LeftToeBase -3.326203 -0.000000 0.000000
RightUpLeg -74.685311 -54.781851 -12.536753
RightLeg -4.020592 -0.000000 0.000000
RightFoot 37.560989 -15.980284 -15.027457
RightToeBase 19.165381 -0.000000 -0.000000
391
root 1.314543 34.001052 -2.414629 26.929735 -44.070798 -49.983909
Spine 13.694262 21.979789 31.512002
Head 7.668774 10.196277 2.764586
LeftShoulder -27.839750 45.087081 6.535958
LeftArm 44.942730 -44.824274 -82.303428
LeftForeArm 4.257636 -0.000000 18.236087
LeftHand 8.879197 -0.000000 0.477233
LeftHandThumb1 -26.253704 0.000000 33.147579
RightShoulder 8.263933 11.155099 -19.135413
RightArm 29.755358 -12.100097 74.527950
RightForeArm -2.269086 -0.000000 13.626025
RightHand 6.954518 -0.000000 3.573958
RightHandThumb1 -24.326973 -0.000000 -32.862282
LeftUpLeg 6.018854 7.086007 28.814267
LeftLeg 13.619415 -0.000000 -0.000000
LeftFoot -19.339226 29.753443 -15.254089
LeftToeBase -3.335194 -0.000000 0.000000
RightUpLeg -74.870577 -54.919024 -12.747118
RightLeg -3.711356 -0.000000 0.000000
RightFoot 37.496176 -16.154164 -15.206977
RightToeBase 19.198233 -0.000000 -0.000000
392
root 1.306055 34.008662 -2.416154 27.076264 -44.034761 -50.083996
Spine 13.596144 22.086407 31.598384
Head 7.701015 10.120108 2.865452
LeftShoulder -27.813996 45.068433 6.606291
LeftArm 44.881931 -44.922043 -82.267076
LeftForeArm 4.128433 -0.000000 18.112422
LeftHand 8.898037 -0.000000 0.459644
LeftHandThumb1 -26.253704 0.000000 33.147579
RightShoulder 8.220192 11.110210 -19.026036
RightArm 29.802901 -12.180942 74.493438
RightForeArm -2.633966 -0.000000 13.624122
RightHand 6.268405 -0.000000 2.926070
RightHandThumb1 -24.326973 -0.000000 -32.862282
LeftUpLeg 6.016589 7.056716 28.887019
LeftLeg 13.504426 -0.000000 -0.000000
LeftFoot -19.273654 29.818656 -15.190599
LeftToeBase -3.227890 -0.000000 0.000000
RightUpLeg -74.907628 -55.028931 -13.127286
RightLeg -3.335330 -0.000000 0.000000
RightFoot 37.494501 -16.370023 -15.345688
RightToeBase 19.288120 -0.000000 -0.000000
393
root 1.299236 34.016606 -2.417577 27.257150 -44.014246 -50.198858
Spine 13.465054 22.205641 31.667698
Head 7.756385 10.080129 2.986566
LeftShoulder -27.823126 45.091943 6.661621
LeftArm 44.879508 -44.998893 -82.282605
LeftForeArm 4.090744 -0.000000 17.928271
LeftHand 8.947836 -0.000000 0.662312
LeftHandThumb1 -26.253704 0.000000 33.147579
RightShoulder 8.239223 11.103199 -18.892913
RightArm 29.773177 -12.160621 74.508164
RightForeArm -2.842964 0.000000 13.539669
RightHand 6.377229 -0.000000 2.804589
RightHandThumb1 -24.326973 -0.000000 -32.862282
LeftUpLeg 5.995022 7.035275 28.959426
LeftLeg 13.403264 -0.000000 -0.000000
LeftFoot -19.197853 29.893856 -15.130724
LeftToeBase -3.278742 -0.000000 0.000000
RightUpLeg -74.947606 -55.113641 -13.475915
RightLeg -2.880059 -0.000000 0.000000
RightFoot 37.590453 -16.462866 -15.547555
RightToeBase 19.416450 -0.000000 -0.000000
394
root 1.294104 34.024777 -2.406437 27.310035 -43.954056 -50.246472
Spine 13.378973 22.227043 31.754103
Head 7.817369 10.020736 3.081913
LeftShoulder -27.840356 45.105833 6.681073
LeftArm 44.827924 -45.029607 -82.238841
LeftForeArm 3.941270 -0.000000 17.787290
LeftHand 8.958343 -0.000000 0.736376
LeftHandThumb1 -26.253704 0.000000 33.147579
RightShoulder 8.235677 11.047131 -18.796661
RightArm 29.761532 -12.140381 74.543832
RightForeArm -3.009103 -0.000000 13.562925
RightHand 6.393663 -0.000000 2.963504
RightHandThumb1 -24.326973 -0.000000 -32.862282
LeftUpLeg 6.033613 6.888857 28.981341
LeftLeg 13.282357 -0.000000 -0.000000
LeftFoot -19.121349 30.016983 -15.083263
LeftToeBase -3.257902 -0.000000 0.000000
RightUpLeg -74.742750 -55.247047 -13.981913
RightLeg -2.442607 -0.000000 0.000000
RightFoot 37.747213 -16.522992 -15.586235
RightToeBase 19.682875 -0.000000 -0.000000
395
root 1.292262 34.030461 -2.414779 27.503231 -44.002812 -50.356924
Spine 13.295125 22.416424 31.764288
Head 7.803560 9.949661 3.256803
LeftShoulder -27.815155 45.089279 6.782739
LeftArm 44.794228 -45.104514 -82.235717
LeftForeArm 3.925642 0.000000 17.626501
LeftHand 8.897896 0.000000 0.698017
LeftHandThumb1 -26.253704 0.000000 33.147579
RightShoulder 8.237127 11.022781 -18.674803
RightArm 29.744194 -12.141162 74.577381
RightForeArm -3.057117 -0.000000 13.609395
RightHand 6.358567 -0.000000 3.043026
RightHandThumb1 -24.326973 -0.000000 -32.862282
LeftUpLeg 5.988680 6.971628 29.034087
LeftLeg 13.243989 -0.000000 -0.000000
LeftFoot -19.075174 30.036470 -15.039127
LeftToeBase -3.205107 -0.000000 0.000000
RightUpLeg -74.609904 -55.197702 -14.467675
RightLeg -1.958899 -0.000000 0.000000
RightFoot 38.002877 -16.637934 -15.695082
RightToeBase 19.814237 -0.000000 -0.000000
396
root 1.291400 34.034995 -2.412716 27.592196 -44.030284 -50.388325
Spine 13.223601 22.547674 31.750409
Head 7.821929 9.844121 3.426610
LeftShoulder -27.761760 45.071678 6.881030
LeftArm 44.695688 -45.150451 -82.149161
LeftForeArm 3.911842 0.000000 17.474146
LeftHand 8.800005 -0.000000 0.753014
LeftHandThumb1 -26.253704 0.000000 33.147579
RightShoulder 8.213994 10.988651 -18.557227
RightArm 29.720057 -12.130482 74.611814
RightForeArm -3.137060 -0.000000 13.628735
RightHand 6.364351 -0.000000 3.079500
RightHandThumb1 -24.326973 -0.000000 -32.862282
LeftUpLeg 5.974440 6.974839 29.020133
LeftLeg 13.188679 -0.000000 -0.000000
LeftFoot -18.937244 30.140727 -14.835436
LeftToeBase -3.186093 -0.000000 0.000000
RightUpLeg -74.356348 -55.193115 -15.022188
RightLeg -1.469578 -0.000000 0.000000
RightFoot 38.212524 -16.708554 -15.679269
RightToeBase 19.820554 -0.000000 -0.000000
